<svg width="38" height="24" viewBox="0 0 38 24" fill="none" xmlns="http://www.w3.org/2000/svg">
<rect x="0.5" y="0.5" width="37" height="23" rx="4.5" fill="white"/>
<path fill-rule="evenodd" clip-rule="evenodd" d="M11.66 8.47C11.3883 8.82199 10.9645 9.02271 10.52 9.01C10.4957 8.57798 10.643 8.15384 10.93 7.83C11.2169 7.49709 11.6223 7.28905 12.06 7.25C12.0891 7.69305 11.9458 8.13021 11.66 8.47ZM12.05 9.1C11.6772 9.1 11.3395 9.22604 11.0637 9.32896L11.0637 9.32896C10.8733 9.39998 10.7125 9.46 10.59 9.46C10.4609 9.46 10.3021 9.397 10.1232 9.32604C9.88658 9.23214 9.61478 9.1243 9.33 9.13C8.67183 9.143 8.07013 9.50477 7.75 10.08C7.23525 11.3602 7.41667 12.8154 8.23 13.93C8.55 14.4 8.94 14.93 9.44 14.93C9.68073 14.93 9.84497 14.8581 10.0153 14.7836C10.1987 14.7034 10.3892 14.62 10.69 14.62C10.9861 14.62 11.1753 14.7008 11.3575 14.7785C11.5322 14.8531 11.7003 14.9249 11.95 14.92C12.46 14.91 12.8 14.45 13.12 13.98C13.3501 13.6488 13.5288 13.2847 13.65 12.9C13.041 12.6248 12.6497 12.0183 12.65 11.35C12.6592 10.7587 12.968 10.2126 13.47 9.9C13.1491 9.44033 12.6303 9.15873 12.07 9.14L12.05 9.1ZM15.7 14.83V7.83L18.35 7.79C18.9719 7.75804 19.5782 7.99114 20.0185 8.43147C20.4589 8.87179 20.692 9.4781 20.66 10.1C20.6863 10.7283 20.4461 11.3385 19.9986 11.7803C19.5511 12.2221 18.9379 12.4544 18.31 12.42H16.8V14.83H15.7ZM16.8 8.75H18C18.3928 8.69801 18.7883 8.82526 19.077 9.09661C19.3658 9.36795 19.5174 9.75468 19.49 10.15C19.518 10.5473 19.3651 10.936 19.0739 11.2078C18.7828 11.4795 18.3844 11.6053 17.99 11.55H16.78L16.8 8.75ZM24.27 14.03C23.9411 14.6047 23.3218 14.9509 22.66 14.93L22.64 14.89C22.1981 14.9654 21.7452 14.8458 21.3981 14.562C21.0511 14.2782 20.8439 13.8581 20.83 13.41C20.83 12.51 21.56 11.99 22.83 11.91L24.2 11.83V11.44C24.2 10.86 23.87 10.55 23.2 10.55C22.7408 10.5317 22.3283 10.8287 22.2 11.27H21.2C21.3349 10.2921 22.2174 9.5949 23.2 9.69C24.46 9.69 25.27 10.37 25.27 11.37V14.87H24.27V14.03ZM22.96 14.09C22.37 14.09 21.96 13.81 21.96 13.38C21.96 12.95 22.32 12.68 22.96 12.64L24.18 12.56V12.96C24.1269 13.5976 23.5791 14.0791 22.94 14.05L22.96 14.09ZM28.66 15.15C28.23 16.38 27.73 16.79 26.66 16.79L26.64 16.75C26.5043 16.7707 26.3672 16.7807 26.23 16.78V15.94H26.55C27.0012 15.9662 27.3989 15.6463 27.47 15.2L27.57 14.89L25.71 9.76H26.88L28.17 13.92L29.46 9.76H30.58L28.66 15.15Z" fill="#231F20"/>
</svg>
