<svg width="165" height="24" viewBox="0 0 165 24" fill="none" xmlns="http://www.w3.org/2000/svg">
<path fill-rule="evenodd" clip-rule="evenodd" d="M71.34 15.7486H70.5836L70.5493 15.8639C69.3206 20.0253 65.5063 22.8209 61.0581 22.8209C54.6999 22.8209 49.1229 17.261 49.1229 10.9229C49.1229 5.25802 53.3931 0.986449 59.0559 0.986449C63.411 0.986449 67.5909 3.61445 69.7054 7.68116L69.7504 7.76774H71.2393L71.1523 7.54788C69.3364 2.96259 64.9663 -0.00012207 60.0197 -0.00012207C53.4673 -0.00012207 48.1367 5.33259 48.1367 11.8872C48.1367 18.4597 53.5007 23.8074 60.0947 23.8074C65.0696 23.8074 69.5571 20.6553 71.2616 15.9642L71.34 15.7486Z" fill="#B31B38"/>
<path fill-rule="evenodd" clip-rule="evenodd" d="M88.8905 23.2281H88.7298V23.6995H92.2501V23.2281H92.0893C91.4251 23.2281 91.2116 23.0331 91.2116 22.4249V1.38205C91.2116 0.774339 91.4251 0.57891 92.0893 0.57891H92.2501V0.10791H88.7298V0.57891H88.8905C89.5552 0.57891 89.7686 0.774339 89.7686 1.38205V11.6845H75.2353V1.38205C75.2353 0.774339 75.4488 0.57891 76.1135 0.57891H76.2742V0.10791H72.7539V0.57891H72.9146C73.5793 0.57891 73.7923 0.774339 73.7923 1.38205V22.4249C73.7923 23.0331 73.5793 23.2281 72.9146 23.2281H72.7539V23.6995H76.2742V23.2281H76.1135C75.4488 23.2281 75.2353 23.0331 75.2353 22.4249V12.1559H89.7686V22.4249C89.7686 23.0331 89.5552 23.2281 88.8905 23.2281Z" fill="#B31B38"/>
<path fill-rule="evenodd" clip-rule="evenodd" d="M38.5942 21.0676H38.1365L38.1236 21.2146C38.0066 22.5693 37.4748 23.2281 36.4976 23.2281H33.0001C32.9671 23.2281 32.1888 23.2195 32.1888 22.4579V12.1559H33.0335C34.0509 12.1559 34.6586 12.8913 34.6586 14.1226V14.2833H35.1301V9.52362H34.6586V9.68434C34.6586 10.9366 34.0509 11.6845 33.0335 11.6845H32.1888V1.38205C32.1888 0.637196 32.8098 0.57891 33.0001 0.57891H36.4976C37.5309 0.57891 38.1232 1.30834 38.1232 2.57905V2.73977H38.5942V0.10791H29.6992V0.57891H29.8599C30.5469 0.57891 30.7458 0.759339 30.7458 1.38205V22.4249C30.7458 23.0481 30.5469 23.2281 29.8599 23.2281H29.6992V23.6995H38.5942V21.0676Z" fill="#B31B38"/>
<path fill-rule="evenodd" clip-rule="evenodd" d="M23.6651 0.579032H23.8258C24.4905 0.579032 24.7035 0.774461 24.7035 1.38218V11.6846H16.7822V1.38218C16.7822 0.774461 16.9956 0.579032 17.6599 0.579032H17.8206V0.108032H14.3008V0.579032H14.4615C15.1262 0.579032 15.3392 0.774461 15.3392 1.38218V22.425C15.3392 23.0332 15.1262 23.2282 14.4615 23.2282H14.3008V23.6992H17.8206V23.2282H17.6599C16.9956 23.2282 16.7822 23.0332 16.7822 22.425V12.156H24.7035V22.425C24.7035 23.0332 24.4905 23.2282 23.8258 23.2282H23.6651V23.6992H27.1849V23.2282H27.0242C26.3599 23.2282 26.1465 23.0332 26.1465 22.425V1.38218C26.1465 0.774461 26.3599 0.579032 27.0242 0.579032H27.1849V0.108032H23.6651V0.579032Z" fill="#B31B38"/>
<path fill-rule="evenodd" clip-rule="evenodd" d="M0 0.108032L0.309429 2.73989H0.756857L0.762429 2.58518C0.779571 2.1146 0.947143 0.579032 2.388 0.579032H4.85871C5.11286 0.579032 5.70343 0.657461 5.70343 1.38218V22.425C5.70343 23.0332 5.49043 23.2282 4.82571 23.2282H4.665V23.6992H8.18486V23.2282H8.02414C7.35943 23.2282 7.14643 23.0332 7.14643 22.425V1.38218C7.14643 0.657461 7.737 0.579032 7.99114 0.579032H10.4614C11.9027 0.579032 12.0703 2.1146 12.087 2.58518L12.0926 2.73989H12.5781L12.2687 0.108032H0Z" fill="#B31B38"/>
<path fill-rule="evenodd" clip-rule="evenodd" d="M127.161 21.0676H126.703L126.69 21.2146C126.573 22.5693 126.042 23.2281 125.064 23.2281H121.567C121.534 23.2281 120.756 23.2195 120.756 22.4579V12.1559H121.6C122.618 12.1559 123.225 12.8913 123.225 14.1226V14.2833H123.696V9.52362H123.225V9.68434C123.225 10.9366 122.618 11.6845 121.6 11.6845H120.756V1.38205C120.756 0.637196 121.377 0.57891 121.567 0.57891H125.064C126.097 0.57891 126.69 1.30834 126.69 2.57905V2.73977H127.161V0.10791H118.266V0.57891H118.426C119.114 0.57891 119.313 0.759339 119.313 1.38205V22.4249C119.313 23.0481 119.114 23.2281 118.426 23.2281H118.266V23.6995H127.161V21.0676Z" fill="#B31B38"/>
<path fill-rule="evenodd" clip-rule="evenodd" d="M132.923 15.9645L138.276 2.15335L144.044 15.9645H132.923ZM148.313 22.5045L139.458 1.28722C139.376 1.0905 139.371 0.936217 139.443 0.829074C139.565 0.644788 139.909 0.579217 140.19 0.579217H140.35V0.107788H136.772V0.579217H136.933C137.253 0.579217 137.69 0.579217 138.024 1.5285L129.896 22.5088C129.676 23.0805 129.469 23.2279 128.891 23.2279H128.73V23.6994H131.021L131.004 23.2271L130.842 23.2279C130.549 23.2314 130.395 23.1786 130.324 23.0775C130.251 22.9712 130.295 22.7951 130.345 22.6661L132.756 16.4359H144.245L146.679 22.2868C146.81 22.6031 146.825 22.8636 146.72 23.0205C146.606 23.1919 146.354 23.2279 146.163 23.2279H146.003V23.6994H149.481V23.2185L149.311 23.2284C148.838 23.2519 148.537 23.0316 148.313 22.5045Z" fill="#B31B38"/>
<path fill-rule="evenodd" clip-rule="evenodd" d="M162.3 0.108032V0.579032H162.461C163.085 0.579032 163.346 0.686175 163.346 1.34918V17.7707C163.346 20.9439 160.791 23.3366 157.401 23.3366C154.016 23.3366 151.829 21.0047 151.829 17.3966V1.38218C151.829 0.766747 152.036 0.579032 152.715 0.579032H152.876V0.108032H149.34V0.579032H149.501C150.179 0.579032 150.386 0.766747 150.386 1.38218V17.1729C150.386 21.0789 153.271 23.8072 157.401 23.8072C161.059 23.8072 163.818 21.2122 163.818 17.7707V1.34918C163.818 0.686175 164.077 0.579032 164.696 0.579032H164.856V0.108032H162.3Z" fill="#B31B38"/>
<path fill-rule="evenodd" clip-rule="evenodd" d="M102.778 3.09402V15.9644H97.7661L102.778 3.09402ZM102.778 22.4247C102.778 23.0329 102.565 23.2279 101.901 23.2279H101.74V23.6993H105.26V23.2279H105.099C104.427 23.2279 104.221 23.0406 104.221 22.4247V1.3823C104.221 0.766869 104.427 0.579154 105.099 0.579154H105.26V0.108154H101.74V0.579154H101.901C102.565 0.579154 102.778 0.774154 102.778 1.3823V1.80101L94.7147 22.507C94.5017 23.0393 94.1652 23.2279 93.942 23.2279H93.7812V23.6993H95.7805V23.2279H95.6198C95.3082 23.2279 95.187 23.146 95.1402 23.077C95.0678 22.9703 95.1124 22.795 95.163 22.666L97.5908 16.4359H102.778V22.4247Z" fill="#B31B38"/>
<path fill-rule="evenodd" clip-rule="evenodd" d="M106.973 2.73989H107.438L107.444 2.58518C107.46 2.1146 107.628 0.579032 109.069 0.579032H110.182C110.436 0.579032 111.027 0.657461 111.027 1.38218V22.425C111.027 23.0332 110.814 23.2282 110.149 23.2282H109.988V23.6992H113.508V23.2282H113.348C112.683 23.2282 112.47 23.0332 112.47 22.425V1.38218C112.47 0.657461 113.061 0.579032 113.314 0.579032H114.428C115.869 0.579032 116.036 2.1146 116.053 2.58518L116.059 2.73989H116.524V0.108032H106.973V2.73989Z" fill="#B31B38"/>
</svg>
