<?xml version="1.0" encoding="UTF-8"?>
<svg width="38px" height="24px" viewBox="0 0 38 24" version="1.1" xmlns="http://www.w3.org/2000/svg" xmlns:xlink="http://www.w3.org/1999/xlink">
    <title>discover-fill</title>
    <g id="Page-1" stroke="none" stroke-width="1" fill="none" fill-rule="evenodd">
        <g id="discover-fill" fill-rule="nonzero">
            <rect id="Rectangle" fill="#000000" x="0" y="0" width="38" height="24" rx="5"></rect>
            <path d="M20.19,9.76 C18.9612319,9.79292532 17.9885479,10.8099154 18.0103526,12.0389312 C18.0321573,13.2679469 19.0403038,14.249794 20.2694665,14.2391117 C21.4986293,14.2284294 22.489559,13.2292091 22.49,12 C22.4680924,10.748615 21.4415269,9.74882951 20.19,9.76 Z M8.42,14.12 L9.2,14.12 L9.2,9.87 L8.42,9.87 L8.42,14.12 Z M7,10.39 C6.79513293,10.2198415 6.56144259,10.0877557 6.31,10 C6.03758914,9.91701858 5.75475087,9.87324599 5.47,9.87 L3.75,9.87 L3.75,14.12 L5.38,14.12 C5.65432696,14.1186469 5.92706392,14.0782415 6.19,14 C6.456819,13.9124818 6.70698668,13.7806367 6.93,13.61 C7.16010898,13.4295598 7.34785136,13.2008554 7.48,12.94 C7.63434376,12.6513233 7.71020516,12.3271882 7.7,12 C7.704954,11.6766535 7.64014883,11.3560385 7.51,11.06 C7.38947174,10.8030058 7.21561934,10.5746115 7,10.39 Z M6.72,12.66 C6.63034639,12.8377052 6.50017957,12.9918501 6.34,13.11 C6.16801768,13.2229528 5.97891396,13.3073741 5.78,13.36 C5.55372336,13.4124321 5.32227075,13.4392672 5.09,13.44 L4.53,13.44 L4.53,10.56 L5.24,10.56 C5.46271341,10.5545619 5.68503545,10.58151 5.9,10.64 C6.08805579,10.6884124 6.26474613,10.7733596 6.42,10.89 C6.56986424,11.008541 6.68690866,11.1634528 6.76,11.34 C6.84561032,11.5492179 6.88648654,11.7740372 6.88,12 C6.89038822,12.2283398 6.84219395,12.4555413 6.74,12.66 L6.72,12.66 Z M12.33,11.9 C12.1736408,11.8076236 12.0054281,11.7369743 11.83,11.69 L11.33,11.52 C11.1949603,11.4750165 11.0670106,11.4110417 10.95,11.33 C10.8436022,11.2547186 10.7832103,11.1301602 10.79,11 C10.7856372,10.9112842 10.8102025,10.8235509 10.86,10.75 C10.8970533,10.6799603 10.9523324,10.6212262 11.02,10.58 C11.0887662,10.5308367 11.1671449,10.496759 11.25,10.48 C11.3363563,10.4696266 11.4236437,10.4696266 11.51,10.48 C11.6569822,10.4805462 11.8026561,10.5076483 11.94,10.56 C12.0753835,10.6084087 12.1912563,10.6997024 12.27,10.82 L12.84,10.23 C12.6747345,10.0767001 12.4762163,9.96375007 12.26,9.9 C12.0437432,9.82872555 11.8176938,9.79161296 11.59,9.79 C11.3907214,9.79132583 11.1924363,9.81821195 11,9.87 C10.8125219,9.91488541 10.6357889,9.99645449 10.48,10.11 C10.3323818,10.2156146 10.2095353,10.3521107 10.12,10.51 C10.0173692,10.6817192 9.96860148,10.8802736 9.98,11.08 C9.96984929,11.290405 10.0220294,11.4991254 10.13,11.68 C10.2320058,11.8271665 10.3651563,11.9500746 10.52,12.04 C10.6772918,12.1330203 10.8451525,12.206879 11.02,12.26 L11.52,12.42 C11.6584792,12.4707142 11.7870674,12.5451599 11.9,12.64 C12.0634109,12.8009217 12.0963895,13.0523831 11.98,13.25 C11.939676,13.3235631 11.8811408,13.3855416 11.81,13.43 C11.7335883,13.4807263 11.6490227,13.5179351 11.56,13.54 C11.4705888,13.5545589 11.3794112,13.5545589 11.29,13.54 C10.9443378,13.539332 10.62029,13.371721 10.42,13.09 L9.84,13.65 C10.0131171,13.8479515 10.2331838,13.9992473 10.48,14.09 C10.7341031,14.1776325 11.0012151,14.2215876 11.27,14.2200415 C11.4759015,14.2192848 11.6808772,14.1924027 11.88,14.14 C12.0626121,14.0853328 12.234934,14.0008613 12.39,13.89 C12.5328856,13.7701648 12.6516645,13.6242364 12.74,13.46 C12.8263793,13.2753493 12.8707765,13.0738546 12.87,12.87 C12.8838553,12.6547317 12.82773,12.4407541 12.71,12.26 C12.6166525,12.1160182 12.4939818,11.9933475 12.35,11.9 L12.33,11.9 Z M28,12.29 L30,12.29 L30,11.6 L28,11.6 L28,10.6 L30.12,10.6 L30.12,9.91 L27.22,9.91 L27.22,14.16 L30.22,14.16 L30.22,13.48 L28,13.48 L28,12.29 Z M33.13,12.24 C33.4170462,12.2132784 33.6841216,12.0815212 33.88,11.8699959 C34.0558125,11.6487285 34.1478871,11.3725047 34.14,11.09 C34.1474532,10.8843008 34.099075,10.6804213 34,10.5 C33.9126474,10.3459722 33.7890846,10.2155448 33.64,10.12 C33.4782893,10.0285132 33.3025991,9.96431874 33.12,9.93 C32.9191675,9.88976697 32.7148226,9.86966747 32.51,9.86999594 L31,9.86999594 L31,14.12 L31.78,14.12 L31.78,12.32 L32.35,12.32 L33.35,14.12 L34.29,14.12 L33.13,12.24 Z M32.71,11.66 L31.77,11.66 L31.77,10.52 L32.44,10.52 L32.75,10.52 C32.8459026,10.5314823 32.9399766,10.5550008 33.03,10.59 C33.1168079,10.6270364 33.1901228,10.6898778 33.24,10.77 C33.3014128,10.8573424 33.3297684,10.9636759 33.32,11.07 C33.3295158,11.1825835 33.3013767,11.2951397 33.24,11.39 C33.1821033,11.4707402 33.1022881,11.5332043 33.01,11.57 C32.9033384,11.621124 32.7879863,11.6516584 32.67,11.66 L32.71,11.66 Z M16.29,13.42 C16.133475,13.5051191 15.9581721,13.5498041 15.78,13.55 C15.5672114,13.5538459 15.3559867,13.5129637 15.16,13.43 C14.9826302,13.3529137 14.8227398,13.2406503 14.69,13.1 C14.5582293,12.952739 14.4533065,12.7835088 14.38,12.6 C14.3096332,12.397576 14.2757742,12.1842641 14.28,11.97 C14.2611714,11.56875 14.4096376,11.1776683 14.69,10.89 C14.8204683,10.7491827 14.9811619,10.6397743 15.16,10.57 C15.3559867,10.4870363 15.5672114,10.4461541 15.78,10.45 C15.9333357,10.4521931 16.0853038,10.4792096 16.23,10.53 C16.4061784,10.6086284 16.5631415,10.7246446 16.69,10.87 L17.3,10.44 C17.1097183,10.2108942 16.8658432,10.0322815 16.59,9.92 C16.3295382,9.81429944 16.0510924,9.7599942 15.77,9.7599942 C15.4530966,9.75934935 15.1384653,9.81347947 14.84,9.92 C14.5688067,10.0238806 14.3207463,10.1801926 14.11,10.38 C13.9033323,10.5815206 13.7399953,10.8231233 13.63,11.09 C13.5151698,11.3864992 13.4574883,11.7020512 13.46,12.02 C13.4576068,12.3282 13.5153516,12.6339078 13.63,12.92 C13.7401863,13.1838449 13.9035877,13.4221386 14.11,13.62 C14.3179346,13.8210172 14.5669923,13.9745459 14.84,14.07 C15.1371595,14.1814181 15.4526907,14.2357031 15.77,14.23 C16.0823059,14.2313279 16.3917179,14.1701255 16.68,14.05 C16.9654831,13.9258431 17.2136499,13.7293777 17.4,13.48 L16.76,13 C16.6372957,13.1739062 16.4765555,13.3175463 16.29,13.42 Z M24.64,13.09 L23.45,9.87 L22.56,9.87 L24.27,14.12 L25,14.12 L26.76,9.87 L25.92,9.87 L24.64,13.09 Z" id="Shape" fill="#FFFFFF"></path>
        </g>
    </g>
</svg>