<?xml version="1.0" encoding="UTF-8"?>
<svg width="22px" height="22px" viewBox="0 0 22 22" version="1.1" xmlns="http://www.w3.org/2000/svg" xmlns:xlink="http://www.w3.org/1999/xlink">
    <title>starIcon</title>
    <g id="Page-1" stroke="none" stroke-width="1" fill="none" fill-rule="evenodd">
        <g id="starIcon" fill="#000000" fill-rule="nonzero">
            <path d="M4.61535,21.4983 C4.47598,21.4983 4.3393,21.4554 4.22137,21.3696 C4.015,21.2194 3.91048,20.9646 3.95604,20.7124 L5.11653,13.9481 L0.20388,9.1579 C0.01895,8.9809 -0.045374,8.7126 0.03235,8.4713 C0.11007,8.2299 0.3218,8.0528 0.57373,8.0153 L7.36247,7.02828 L10.399,0.87281 C10.5116,0.64483 10.7448,0.5 10.9994,0.5 C11.254,0.5 11.4872,0.64483 11.5997,0.87281 L14.6363,7.02828 L21.425,8.0153 C21.677,8.0528 21.886,8.2299 21.9664,8.4713 C22.0468,8.7126 21.9798,8.9809 21.7976,9.1579 L16.8822,13.9508 L18.0427,20.7151 C18.0856,20.9672 17.9838,21.222 17.7774,21.3722 C17.571,21.5224 17.2977,21.5412 17.0725,21.4232 L10.9994,18.2288 L4.92624,21.4232 C4.82976,21.4742 4.72255,21.4983 4.61535,21.4983 Z M10.9994,16.7992 C11.1066,16.7992 11.2138,16.8261 11.3103,16.877 L16.4909,19.602 L15.502,13.8274 C15.4645,13.6102 15.5368,13.3876 15.695,13.2347 L19.8867,9.1445 L14.0922,8.3023 C13.8752,8.2701 13.6849,8.1333 13.5884,7.93483 L10.9967,2.68056 L8.40503,7.93483 C8.30855,8.1333 8.11826,8.2701 7.90117,8.3023 L2.10944,9.1471 L6.30114,13.2374 C6.45927,13.3903 6.53163,13.6129 6.49411,13.8301 L5.50515,19.602 L10.6858,16.877 C10.785,16.8261 10.8922,16.7992 10.9994,16.7992 Z" id="Shape"></path>
        </g>
    </g>
</svg>